<mxfile host="app.diagrams.net" agent="Mozilla/5.0 (Macintosh; Intel Mac OS X 10_15_7) AppleWebKit/605.1.15 (KHTML, like Gecko) Version/18.5 Safari/605.1.15" version="28.0.7" pages="2">
  <diagram id="P4yRx54tCu4BhojKKeX_" name="Klassendiagram">
    <mxGraphModel dx="3977" dy="-608" grid="1" gridSize="10" guides="1" tooltips="1" connect="1" arrows="1" fold="1" page="0" pageScale="1" pageWidth="850" pageHeight="1100" background="none" math="0" shadow="0">
      <root>
        <mxCell id="0" />
        <mxCell id="1" parent="0" />
        <mxCell id="node8" value="&lt;p style=&quot;margin:0px;margin-top:4px;text-align:center;&quot;&gt;&lt;b&gt;CalendarApiConnector&lt;/b&gt;&lt;/p&gt;&lt;hr size=&quot;1&quot;/&gt;&lt;p style=&quot;margin:0 0 0 4px;line-height:1.6;&quot;&gt;- CalendarApiConnector(): &lt;/p&gt;&lt;hr size=&quot;1&quot;/&gt;&lt;p style=&quot;margin:0 0 0 4px;line-height:1.6;&quot;&gt;- httpTransport: NetHttpTransport&lt;br/&gt;- TOKENS_DIRECTORY_PATH: String&lt;br/&gt;- SCOPES: List&amp;lt;String&amp;gt;&lt;br/&gt;- APPLICATION_NAME: String&lt;br/&gt;- calendarService: Calendar&lt;br/&gt;- CREDENTIALS_FILE_PATH: String&lt;br/&gt;- instance: CalendarApiConnector&lt;br/&gt;- JSON_FACTORY: JsonFactory&lt;/p&gt;&lt;hr size=&quot;1&quot;/&gt;&lt;p style=&quot;margin:0 0 0 4px;line-height:1.6;&quot;&gt;+ getInstance(): CalendarApiConnector&lt;br/&gt;+ getUserCalendars(): List&amp;lt;CalendarListEntry&amp;gt;&lt;br/&gt;+ getPrimaryCalendarEvents(DateTime, DateTime): Events&lt;br/&gt;- getCredentials(): Credential&lt;br/&gt;- initializeService(): void&lt;br/&gt;+ getAllCalendarsEvents(DateTime, DateTime): Events&lt;br/&gt;+ getCalendarEventsByCalendarId(String, DateTime, DateTime): Events&lt;/p&gt;" style="verticalAlign=top;align=left;overflow=fill;fontSize=14;fontFamily=Helvetica;html=1;rounded=0;shadow=0;comic=0;labelBackgroundColor=none;strokeWidth=1;" parent="1" vertex="1">
          <mxGeometry x="-146" y="4065" width="474" height="427" as="geometry" />
        </mxCell>
        <mxCell id="node7" value="&lt;p style=&quot;margin:0px;margin-top:4px;text-align:center;&quot;&gt;&lt;i&gt;&amp;lt;&amp;lt;interface&amp;gt;&amp;gt;&lt;/i&gt;&lt;br/&gt;&lt;b&gt;CalendarEvent&lt;/b&gt;&lt;/p&gt;&lt;hr size=&quot;1&quot;/&gt;&lt;p style=&quot;margin:0 0 0 4px;line-height:1.6;&quot;&gt;+ getRecurrenceRule(): String&lt;br/&gt;+ getEnd(): LocalDateTime&lt;br/&gt;+ getSummary(): String&lt;br/&gt;+ getPriority(): Integer&lt;br/&gt;+ getUrl(): String&lt;br/&gt;+ getAlarmMinutesBefore(): Integer&lt;br/&gt;+ getDescription(): String&lt;br/&gt;+ getClassification(): String&lt;br/&gt;+ getTransparency(): String&lt;br/&gt;+ getExceptionDates(): List&amp;lt;LocalDateTime&amp;gt;&lt;br/&gt;+ getContact(): String&lt;br/&gt;+ getStatus(): String&lt;br/&gt;+ getAttendees(): List&amp;lt;String&amp;gt;&lt;br/&gt;+ getStart(): LocalDateTime&lt;br/&gt;+ getOrganizer(): String&lt;br/&gt;+ getCategories(): List&amp;lt;String&amp;gt;&lt;br/&gt;+ getLocation(): String&lt;br/&gt;+ getLastModified(): LocalDateTime&lt;br/&gt;+ getCreated(): LocalDateTime&lt;br/&gt;+ toICal(): String&lt;br/&gt;+ getComment(): String&lt;br/&gt;+ getUid(): String&lt;br/&gt;+ getRecurrenceDates(): List&amp;lt;LocalDateTime&amp;gt;&lt;/p&gt;" style="verticalAlign=top;align=left;overflow=fill;fontSize=14;fontFamily=Helvetica;html=1;rounded=0;shadow=0;comic=0;labelBackgroundColor=none;strokeWidth=1;" parent="1" vertex="1">
          <mxGeometry x="-596" y="2610" width="321" height="574" as="geometry" />
        </mxCell>
        <mxCell id="node4" value="&lt;p style=&quot;margin:0px;margin-top:4px;text-align:center;&quot;&gt;&lt;b&gt;EventConverter&lt;/b&gt;&lt;/p&gt;&lt;hr size=&quot;1&quot;/&gt;&lt;p style=&quot;margin:0 0 0 4px;line-height:1.6;&quot;&gt;+ EventConverter(): &lt;/p&gt;&lt;hr size=&quot;1&quot;/&gt;&lt;p style=&quot;margin:0 0 0 4px;line-height:1.6;&quot;&gt;- convertResponseStatus(String): String&lt;br/&gt;- convertStatus(String): String&lt;br/&gt;+ convert(Event): CalendarEvent&lt;br/&gt;- convertDateTime(DateTime): LocalDateTime&lt;br/&gt;- convertVisibility(String): String&lt;br/&gt;- convertEventDateTime(EventDateTime): LocalDateTime&lt;/p&gt;" style="verticalAlign=top;align=left;overflow=fill;fontSize=14;fontFamily=Helvetica;html=1;rounded=0;shadow=0;comic=0;labelBackgroundColor=none;strokeWidth=1;" parent="1" vertex="1">
          <mxGeometry x="-1162" y="2739" width="391" height="209" as="geometry" />
        </mxCell>
        <mxCell id="node5" value="&lt;p style=&quot;margin:0px;margin-top:4px;text-align:center;&quot;&gt;&lt;b&gt;EventFactory&lt;/b&gt;&lt;/p&gt;&lt;hr size=&quot;1&quot;/&gt;&lt;p style=&quot;margin:0 0 0 4px;line-height:1.6;&quot;&gt;+ EventFactory(): &lt;/p&gt;&lt;hr size=&quot;1&quot;/&gt;&lt;p style=&quot;margin:0 0 0 4px;line-height:1.6;&quot;&gt;+ builder(): MyEventBuilder&lt;br/&gt;+ createFromGoogle(Event): CalendarEvent&lt;br/&gt;+ createSimple(String, LocalDateTime, LocalDateTime): CalendarEvent&lt;br/&gt;+ createFromData(String, String, String, String, LocalDateTime, LocalDateTime, String, List&amp;lt;String&amp;gt;): CalendarEvent&lt;/p&gt;" style="verticalAlign=top;align=left;overflow=fill;fontSize=14;fontFamily=Helvetica;html=1;rounded=0;shadow=0;comic=0;labelBackgroundColor=none;strokeWidth=1;" parent="1" vertex="1">
          <mxGeometry x="-1152" y="3055" width="469" height="161" as="geometry" />
        </mxCell>
        <mxCell id="node6" value="&lt;p style=&quot;margin:0px;margin-top:4px;text-align:center;&quot;&gt;&lt;b&gt;G2iCal&lt;/b&gt;&lt;/p&gt;&lt;hr size=&quot;1&quot;/&gt;&lt;p style=&quot;margin:0 0 0 4px;line-height:1.6;&quot;&gt;+ G2iCal(): &lt;/p&gt;&lt;hr size=&quot;1&quot;/&gt;&lt;p style=&quot;margin:0 0 0 4px;line-height:1.6;&quot;&gt;~ EXPORT_FILE_PATH: String&lt;/p&gt;&lt;hr size=&quot;1&quot;/&gt;&lt;p style=&quot;margin:0 0 0 4px;line-height:1.6;&quot;&gt;+ main(String[]): void&lt;br/&gt;- displayInfoIfPorted(String[]): void&lt;br/&gt;- displayWelcomeMessage(): void&lt;br/&gt;- displayCalendarList(List&amp;lt;CalendarListEntry&amp;gt;): void&lt;br/&gt;- getUserInputEndDate(DateTime, String[]): DateTime&lt;br/&gt;- getUserInputFileName(String[]): String&lt;br/&gt;- getUserInputStartDate(String[]): DateTime&lt;br/&gt;- getUserInputCalendar(String[]): String&lt;br/&gt;- promptForValidInput(Scanner, String, Function&amp;lt;String, ValidationResult&amp;gt;): String&lt;/p&gt;" style="verticalAlign=top;align=left;overflow=fill;fontSize=14;fontFamily=Helvetica;html=1;rounded=0;shadow=0;comic=0;labelBackgroundColor=none;strokeWidth=1;" parent="1" vertex="1">
          <mxGeometry x="-364" y="2086" width="554" height="307" as="geometry" />
        </mxCell>
        <mxCell id="node3" value="&lt;p style=&quot;margin:0px;margin-top:4px;text-align:center;&quot;&gt;&lt;b&gt;ICal&lt;/b&gt;&lt;/p&gt;&lt;hr size=&quot;1&quot;/&gt;&lt;p style=&quot;margin:0 0 0 4px;line-height:1.6;&quot;&gt;+ ICal(Events): &lt;br/&gt;+ ICal(): &lt;/p&gt;&lt;hr size=&quot;1&quot;/&gt;&lt;p style=&quot;margin:0 0 0 4px;line-height:1.6;&quot;&gt;- events: List&amp;lt;CalendarEvent&amp;gt;&lt;/p&gt;&lt;hr size=&quot;1&quot;/&gt;&lt;p style=&quot;margin:0 0 0 4px;line-height:1.6;&quot;&gt;+ exportICalToFile(String, String): boolean&lt;br/&gt;+ addGoogleEvent(Event): void&lt;br/&gt;+ getICalString(): String&lt;br/&gt;- foldLines(String): String&lt;/p&gt;" style="verticalAlign=top;align=left;overflow=fill;fontSize=14;fontFamily=Helvetica;html=1;rounded=0;shadow=0;comic=0;labelBackgroundColor=none;strokeWidth=1;" parent="1" vertex="1">
          <mxGeometry x="-160" y="2630" width="293" height="230" as="geometry" />
        </mxCell>
        <mxCell id="node2" value="&lt;p style=&quot;margin:0px;margin-top:4px;text-align:center;&quot;&gt;&lt;b&gt;ICalExportException&lt;/b&gt;&lt;/p&gt;&lt;hr size=&quot;1&quot;/&gt;&lt;p style=&quot;margin:0 0 0 4px;line-height:1.6;&quot;&gt;+ ICalExportException(String, Throwable): &lt;br/&gt;+ ICalExportException(String): &lt;/p&gt;" style="verticalAlign=top;align=left;overflow=fill;fontSize=14;fontFamily=Helvetica;html=1;rounded=0;shadow=0;comic=0;labelBackgroundColor=none;strokeWidth=1;" parent="1" vertex="1">
          <mxGeometry x="-146" y="2970" width="296" height="94" as="geometry" />
        </mxCell>
        <mxCell id="node0" value="&lt;p style=&quot;margin:0px;margin-top:4px;text-align:center;&quot;&gt;&lt;b&gt;InputValidator&lt;/b&gt;&lt;/p&gt;&lt;hr size=&quot;1&quot;/&gt;&lt;p style=&quot;margin:0 0 0 4px;line-height:1.6;&quot;&gt;+ InputValidator(): &lt;/p&gt;&lt;hr size=&quot;1&quot;/&gt;&lt;p style=&quot;margin:0 0 0 4px;line-height:1.6;&quot;&gt;- DATE_FORMATTER: DateTimeFormatter&lt;/p&gt;&lt;hr size=&quot;1&quot;/&gt;&lt;p style=&quot;margin:0 0 0 4px;line-height:1.6;&quot;&gt;+ convertToDateTime(String, boolean): DateTime&lt;br/&gt;+ validateCalendarIndex(String, List&amp;lt;CalendarListEntry&amp;gt;): ValidationResult&lt;br/&gt;+ validateFileName(String): ValidationResult&lt;br/&gt;+ findCalendarByName(String, List&amp;lt;CalendarListEntry&amp;gt;): CalendarListEntry&lt;br/&gt;+ normalizeFileName(String): String&lt;br/&gt;+ validateDate(String, String): ValidationResult&lt;br/&gt;+ getCalendarIdByIndex(int, List&amp;lt;CalendarListEntry&amp;gt;): String?&lt;br/&gt;+ validateCalendarName(String, List&amp;lt;CalendarListEntry&amp;gt;): ValidationResult&lt;br/&gt;+ validateDateRange(DateTime, String): ValidationResult&lt;/p&gt;" style="verticalAlign=top;align=left;overflow=fill;fontSize=14;fontFamily=Helvetica;html=1;rounded=0;shadow=0;comic=0;labelBackgroundColor=none;strokeWidth=1;" parent="1" vertex="1">
          <mxGeometry x="-136" y="3620" width="495" height="310" as="geometry" />
        </mxCell>
        <mxCell id="node9" value="&lt;p style=&quot;margin:0px;margin-top:4px;text-align:center;&quot;&gt;&lt;b&gt;MyEvent&lt;/b&gt;&lt;/p&gt;&lt;hr size=&quot;1&quot;/&gt;&lt;p style=&quot;margin:0 0 0 4px;line-height:1.6;&quot;&gt;~ MyEvent(MyEventBuilder): &lt;br/&gt;+ MyEvent(): &lt;/p&gt;&lt;hr size=&quot;1&quot;/&gt;&lt;p style=&quot;margin:0 0 0 4px;line-height:1.6;&quot;&gt;- uid: String&lt;br/&gt;- start: LocalDateTime&lt;br/&gt;- organizer: String&lt;br/&gt;- end: LocalDateTime&lt;br/&gt;- exceptionDates: List&amp;lt;LocalDateTime&amp;gt;&lt;br/&gt;- url: String&lt;br/&gt;- status: String&lt;br/&gt;- priority: Integer&lt;br/&gt;- recurrenceDates: List&amp;lt;LocalDateTime&amp;gt;&lt;br/&gt;- ICAL_DATE_FORMAT: DateTimeFormatter&lt;br/&gt;- comment: String&lt;br/&gt;- summary: String&lt;br/&gt;- location: String&lt;br/&gt;- attendees: List&amp;lt;String&amp;gt;&lt;br/&gt;- categories: List&amp;lt;String&amp;gt;&lt;br/&gt;- alarmMinutesBefore: Integer&lt;br/&gt;- recurrenceRule: String&lt;br/&gt;- description: String&lt;br/&gt;- contact: String&lt;br/&gt;- created: LocalDateTime&lt;br/&gt;- transparency: String&lt;br/&gt;- classification: String&lt;br/&gt;- lastModified: LocalDateTime&lt;/p&gt;&lt;hr size=&quot;1&quot;/&gt;&lt;p style=&quot;margin:0 0 0 4px;line-height:1.6;&quot;&gt;+ getRecurrenceDates(): List&amp;lt;LocalDateTime&amp;gt;&lt;br/&gt;+ getStatus(): String&lt;br/&gt;+ getUrl(): String&lt;br/&gt;+ getClassification(): String&lt;br/&gt;+ getOrganizer(): String&lt;br/&gt;+ getAlarmMinutesBefore(): Integer&lt;br/&gt;+ getRecurrenceRule(): String&lt;br/&gt;+ getAttendees(): List&amp;lt;String&amp;gt;&lt;br/&gt;+ getContact(): String&lt;br/&gt;+ getTransparency(): String&lt;br/&gt;+ setDescription(String): void&lt;br/&gt;+ getSummary(): String&lt;br/&gt;+ getCreated(): LocalDateTime&lt;br/&gt;+ getLastModified(): LocalDateTime&lt;br/&gt;+ setStart(LocalDateTime): void&lt;br/&gt;+ getStart(): LocalDateTime&lt;br/&gt;+ toICal(): String&lt;br/&gt;+ getLocation(): String&lt;br/&gt;+ getCategories(): List&amp;lt;String&amp;gt;&lt;br/&gt;+ getComment(): String&lt;br/&gt;+ setSummary(String): void&lt;br/&gt;- updateLastModified(): void&lt;br/&gt;+ getPriority(): Integer&lt;br/&gt;+ setEnd(LocalDateTime): void&lt;br/&gt;+ getDescription(): String&lt;br/&gt;+ setLocation(String): void&lt;br/&gt;- escapeText(String): String&lt;br/&gt;+ getEnd(): LocalDateTime&lt;br/&gt;+ getUid(): String&lt;br/&gt;+ getExceptionDates(): List&amp;lt;LocalDateTime&amp;gt;&lt;/p&gt;" style="verticalAlign=top;align=left;overflow=fill;fontSize=14;fontFamily=Helvetica;html=1;rounded=0;shadow=0;comic=0;labelBackgroundColor=none;strokeWidth=1;" parent="1" vertex="1">
          <mxGeometry x="-643" y="3294" width="321" height="1286" as="geometry" />
        </mxCell>
        <mxCell id="node1" value="&lt;p style=&quot;margin:0px;margin-top:4px;text-align:center;&quot;&gt;&lt;b&gt;MyEventBuilder&lt;/b&gt;&lt;/p&gt;&lt;hr size=&quot;1&quot;/&gt;&lt;p style=&quot;margin:0 0 0 4px;line-height:1.6;&quot;&gt;+ MyEventBuilder(): &lt;/p&gt;&lt;hr size=&quot;1&quot;/&gt;&lt;p style=&quot;margin:0 0 0 4px;line-height:1.6;&quot;&gt;~ summary: String&lt;br/&gt;~ url: String&lt;br/&gt;~ contact: String&lt;br/&gt;~ description: String&lt;br/&gt;~ classification: String&lt;br/&gt;~ comment: String&lt;br/&gt;~ alarmMinutesBefore: Integer&lt;br/&gt;~ uid: String&lt;br/&gt;~ location: String&lt;br/&gt;~ exceptionDates: List&amp;lt;LocalDateTime&amp;gt;&lt;br/&gt;~ lastModified: LocalDateTime&lt;br/&gt;~ recurrenceDates: List&amp;lt;LocalDateTime&amp;gt;&lt;br/&gt;~ priority: Integer&lt;br/&gt;~ attendees: List&amp;lt;String&amp;gt;&lt;br/&gt;~ created: LocalDateTime&lt;br/&gt;~ status: String&lt;br/&gt;~ start: LocalDateTime&lt;br/&gt;~ transparency: String&lt;br/&gt;~ categories: List&amp;lt;String&amp;gt;&lt;br/&gt;~ end: LocalDateTime&lt;br/&gt;~ organizer: String&lt;br/&gt;~ recurrenceRule: String&lt;/p&gt;&lt;hr size=&quot;1&quot;/&gt;&lt;p style=&quot;margin:0 0 0 4px;line-height:1.6;&quot;&gt;+ setPriorityNormal(): MyEventBuilder&lt;br/&gt;+ addExceptionDate(LocalDateTime): MyEventBuilder&lt;br/&gt;+ setAlarm15MinutesBefore(): MyEventBuilder&lt;br/&gt;+ setCreated(LocalDateTime): MyEventBuilder&lt;br/&gt;+ setPriorityHigh(): MyEventBuilder&lt;br/&gt;+ setExceptionDates(List&amp;lt;LocalDateTime&amp;gt;): MyEventBuilder&lt;br/&gt;+ setTransparencyOpaque(): MyEventBuilder&lt;br/&gt;+ setAttendees(List&amp;lt;String&amp;gt;): MyEventBuilder&lt;br/&gt;+ setClassificationPrivate(): MyEventBuilder&lt;br/&gt;+ setAlarm1HourBefore(): MyEventBuilder&lt;br/&gt;+ setRecurrenceDates(List&amp;lt;LocalDateTime&amp;gt;): MyEventBuilder&lt;br/&gt;+ setTransparencyTransparent(): MyEventBuilder&lt;br/&gt;+ setAlarm30MinutesBefore(): MyEventBuilder&lt;br/&gt;+ setRecurrenceRule(String): MyEventBuilder&lt;br/&gt;+ setPriority(Integer): MyEventBuilder&lt;br/&gt;+ addCategory(String): MyEventBuilder&lt;br/&gt;+ setPriorityLow(): MyEventBuilder&lt;br/&gt;+ setCategories(List&amp;lt;String&amp;gt;): MyEventBuilder&lt;br/&gt;+ setEnd(LocalDateTime): MyEventBuilder&lt;br/&gt;+ setStatus(String): MyEventBuilder&lt;br/&gt;+ setContact(String): MyEventBuilder&lt;br/&gt;+ addAttendee(String): MyEventBuilder&lt;br/&gt;+ setUrl(String): MyEventBuilder&lt;br/&gt;+ setTransparency(String): MyEventBuilder&lt;br/&gt;+ setStatusConfirmed(): MyEventBuilder&lt;br/&gt;+ setLastModified(LocalDateTime): MyEventBuilder&lt;br/&gt;+ build(): MyEvent&lt;br/&gt;+ setAlarm1DayBefore(): MyEventBuilder&lt;br/&gt;+ setStart(LocalDateTime): MyEventBuilder&lt;br/&gt;+ setLocation(String): MyEventBuilder&lt;br/&gt;+ setStatusTentative(): MyEventBuilder&lt;br/&gt;+ setStatusCancelled(): MyEventBuilder&lt;br/&gt;+ setClassification(String): MyEventBuilder&lt;br/&gt;+ setClassificationPublic(): MyEventBuilder&lt;br/&gt;+ setUid(String): MyEventBuilder&lt;br/&gt;+ setOrganizer(String): MyEventBuilder&lt;br/&gt;+ setSummary(String): MyEventBuilder&lt;br/&gt;+ setAlarmMinutesBefore(Integer): MyEventBuilder&lt;br/&gt;+ setClassificationConfidential(): MyEventBuilder&lt;br/&gt;+ setDescription(String): MyEventBuilder&lt;br/&gt;+ setComment(String): MyEventBuilder&lt;br/&gt;+ addRecurrenceDate(LocalDateTime): MyEventBuilder&lt;/p&gt;" style="verticalAlign=top;align=left;overflow=fill;fontSize=14;fontFamily=Helvetica;html=1;rounded=0;shadow=0;comic=0;labelBackgroundColor=none;strokeWidth=1;" parent="1" vertex="1">
          <mxGeometry x="-1152" y="3306" width="416" height="1504" as="geometry" />
        </mxCell>
        <mxCell id="node10" value="&lt;p style=&quot;margin:0px;margin-top:4px;text-align:center;&quot;&gt;&lt;b&gt;ValidationResult&lt;/b&gt;&lt;/p&gt;&lt;hr size=&quot;1&quot;/&gt;&lt;p style=&quot;margin:0 0 0 4px;line-height:1.6;&quot;&gt;+ ValidationResult(boolean, String): &lt;/p&gt;&lt;hr size=&quot;1&quot;/&gt;&lt;p style=&quot;margin:0 0 0 4px;line-height:1.6;&quot;&gt;- valid: boolean&lt;br/&gt;- errorMessage: String&lt;/p&gt;&lt;hr size=&quot;1&quot;/&gt;&lt;p style=&quot;margin:0 0 0 4px;line-height:1.6;&quot;&gt;+ getErrorMessage(): String&lt;br/&gt;+ isValid(): boolean&lt;/p&gt;" style="verticalAlign=top;align=left;overflow=fill;fontSize=14;fontFamily=Helvetica;html=1;rounded=0;shadow=0;comic=0;labelBackgroundColor=none;strokeWidth=1;" parent="1" vertex="1">
          <mxGeometry x="26" y="3320" width="254" height="184" as="geometry" />
        </mxCell>
        <mxCell id="edge2" value="" style="html=1;rounded=1;edgeStyle=orthogonalEdgeStyle;dashed=1;startArrow=none;endArrow=openThin;endSize=12;strokeColor=#595959;exitX=0.000;exitY=0.500;exitDx=0;exitDy=0;entryX=0.500;entryY=0.000;entryDx=0;entryDy=0;" parent="1" source="node4" target="node1" edge="1">
          <mxGeometry width="50" height="50" relative="1" as="geometry">
            <Array as="points">
              <mxPoint x="-1180" y="2843" />
              <mxPoint x="-1180" y="3255" />
              <mxPoint x="-944" y="3255" />
            </Array>
          </mxGeometry>
        </mxCell>
        <mxCell id="label14" value="«create»" style="edgeLabel;resizable=0;html=1;align=left;verticalAlign=top;strokeColor=default;" parent="edge2" vertex="1" connectable="0">
          <mxGeometry x="-1230" y="2875" as="geometry" />
        </mxCell>
        <mxCell id="edge7" value="" style="html=1;rounded=1;edgeStyle=orthogonalEdgeStyle;dashed=1;startArrow=none;endArrow=openThin;endSize=12;strokeColor=#595959;exitX=0.500;exitY=1.000;exitDx=0;exitDy=0;entryX=0.500;entryY=0.000;entryDx=0;entryDy=0;" parent="1" source="node5" target="node1" edge="1">
          <mxGeometry width="50" height="50" relative="1" as="geometry">
            <Array as="points">
              <mxPoint x="-917" y="3255" />
              <mxPoint x="-944" y="3255" />
            </Array>
          </mxGeometry>
        </mxCell>
        <mxCell id="label44" value="«create»" style="edgeLabel;resizable=0;html=1;align=left;verticalAlign=top;strokeColor=default;" parent="edge7" vertex="1" connectable="0">
          <mxGeometry x="-996" y="3275" as="geometry" />
        </mxCell>
        <mxCell id="edge8" value="" style="html=1;rounded=1;edgeStyle=orthogonalEdgeStyle;dashed=1;startArrow=none;endArrow=openThin;endSize=12;strokeColor=#595959;entryX=0.500;entryY=0.000;entryDx=0;entryDy=0;" parent="1" target="node3" edge="1">
          <mxGeometry width="50" height="50" relative="1" as="geometry">
            <Array as="points">
              <mxPoint x="-13" y="2515" />
            </Array>
            <mxPoint x="-14" y="2400" as="sourcePoint" />
          </mxGeometry>
        </mxCell>
        <mxCell id="label50" value="«create»" style="edgeLabel;resizable=0;html=1;align=left;verticalAlign=top;strokeColor=default;" parent="edge8" vertex="1" connectable="0">
          <mxGeometry x="-14.5" y="2511" as="geometry" />
        </mxCell>
        <mxCell id="edge5" value="" style="html=1;rounded=1;edgeStyle=orthogonalEdgeStyle;dashed=0;startArrow=diamondThinstartSize=12;endArrow=openThin;endSize=12;strokeColor=#595959;exitX=0.004;exitY=0.597;exitDx=0;exitDy=0;entryX=1.000;entryY=0.273;entryDx=0;entryDy=0;exitPerimeter=0;" parent="1" source="node3" target="node7" edge="1">
          <mxGeometry width="50" height="50" relative="1" as="geometry">
            <Array as="points" />
          </mxGeometry>
        </mxCell>
        <mxCell id="label30" value="1..1" style="edgeLabel;resizable=0;html=1;align=left;verticalAlign=top;strokeColor=default;" parent="edge5" vertex="1" connectable="0">
          <mxGeometry x="-190" y="2740" as="geometry" />
        </mxCell>
        <mxCell id="label34" value="0..*" style="edgeLabel;resizable=0;html=1;align=left;verticalAlign=top;strokeColor=default;" parent="edge5" vertex="1" connectable="0">
          <mxGeometry x="-270" y="2740" as="geometry" />
        </mxCell>
        <mxCell id="label35" value="events" style="edgeLabel;resizable=0;html=1;align=left;verticalAlign=top;strokeColor=default;" parent="edge5" vertex="1" connectable="0">
          <mxGeometry x="-240" y="2740" as="geometry" />
        </mxCell>
        <mxCell id="edge6" value="" style="html=1;rounded=1;edgeStyle=orthogonalEdgeStyle;dashed=1;startArrow=none;endArrow=openThin;endSize=12;strokeColor=#595959;exitX=0.545;exitY=1.000;exitDx=0;exitDy=0;entryX=0.500;entryY=0.000;entryDx=0;entryDy=0;" parent="1" source="node3" target="node2" edge="1">
          <mxGeometry width="50" height="50" relative="1" as="geometry">
            <Array as="points" />
          </mxGeometry>
        </mxCell>
        <mxCell id="label38" value="«create»" style="edgeLabel;resizable=0;html=1;align=left;verticalAlign=top;strokeColor=default;" parent="edge6" vertex="1" connectable="0">
          <mxGeometry x="10" y="2890" as="geometry" />
        </mxCell>
        <mxCell id="edge3" value="" style="html=1;rounded=1;edgeStyle=orthogonalEdgeStyle;dashed=1;startArrow=none;endArrow=openThin;endSize=12;strokeColor=#595959;exitX=0.585;exitY=0.000;exitDx=0;exitDy=0;entryX=0.500;entryY=1.000;entryDx=0;entryDy=0;" parent="1" source="node0" target="node10" edge="1">
          <mxGeometry width="50" height="50" relative="1" as="geometry">
            <Array as="points" />
          </mxGeometry>
        </mxCell>
        <mxCell id="label20" value="«create»" style="edgeLabel;resizable=0;html=1;align=left;verticalAlign=top;strokeColor=default;" parent="edge3" vertex="1" connectable="0">
          <mxGeometry x="127" y="3577" as="geometry" />
        </mxCell>
        <mxCell id="edge0" value="" style="html=1;rounded=1;edgeStyle=orthogonalEdgeStyle;dashed=1;startArrow=none;endArrow=block;endSize=12;strokeColor=#008200;exitX=0.646;exitY=0.000;exitDx=0;exitDy=0;entryX=0.500;entryY=1.000;entryDx=0;entryDy=0;" parent="1" source="node9" target="node7" edge="1">
          <mxGeometry width="50" height="50" relative="1" as="geometry">
            <Array as="points" />
          </mxGeometry>
        </mxCell>
        <mxCell id="edge4" value="" style="html=1;rounded=1;edgeStyle=orthogonalEdgeStyle;dashed=1;startArrow=none;endArrow=openThin;endSize=12;strokeColor=#595959;exitX=1.000;exitY=0.418;exitDx=0;exitDy=0;entryX=0.000;entryY=0.500;entryDx=0;entryDy=0;" parent="1" source="node1" target="node9" edge="1">
          <mxGeometry width="50" height="50" relative="1" as="geometry">
            <Array as="points" />
          </mxGeometry>
        </mxCell>
        <mxCell id="label26" value="«create»" style="edgeLabel;resizable=0;html=1;align=left;verticalAlign=top;strokeColor=default;" parent="edge4" vertex="1" connectable="0">
          <mxGeometry x="-715" y="3956" as="geometry" />
        </mxCell>
        <mxCell id="edge1" value="" style="html=1;rounded=1;edgeStyle=orthogonalEdgeStyle;dashed=0;startArrow=circlePlus;startFill=0;endArrow=none;strokeColor=#820000;exitX=0.334;exitY=1.000;exitDx=0;exitDy=0;entryX=0.500;entryY=0.000;entryDx=0;entryDy=0;" parent="1" source="node10" target="node0" edge="1">
          <mxGeometry width="50" height="50" relative="1" as="geometry">
            <Array as="points" />
          </mxGeometry>
        </mxCell>
      </root>
    </mxGraphModel>
  </diagram>
  <diagram id="2Ecuzczo8lxG7oA9VAiG" name="Sequenz-Diagramm">
    <mxGraphModel dx="551" dy="157" grid="1" gridSize="10" guides="1" tooltips="1" connect="1" arrows="1" fold="1" page="0" pageScale="1" pageWidth="850" pageHeight="1100" math="0" shadow="0">
      <root>
        <mxCell id="0" />
        <mxCell id="1" parent="0" />
        <mxCell id="VNBOhafNNeuqBsvZpEvY-1" value="Main" style="shape=umlLifeline;perimeter=lifelinePerimeter;whiteSpace=wrap;html=1;container=1;dropTarget=0;collapsible=0;recursiveResize=0;outlineConnect=0;portConstraint=eastwest;newEdgeStyle={&quot;curved&quot;:0,&quot;rounded&quot;:0};" vertex="1" parent="1">
          <mxGeometry x="740" y="770" width="100" height="920" as="geometry" />
        </mxCell>
        <mxCell id="VNBOhafNNeuqBsvZpEvY-2" value="" style="html=1;points=[[0,0,0,0,5],[0,1,0,0,-5],[1,0,0,0,5],[1,1,0,0,-5]];perimeter=orthogonalPerimeter;outlineConnect=0;targetShapes=umlLifeline;portConstraint=eastwest;newEdgeStyle={&quot;curved&quot;:0,&quot;rounded&quot;:0};" vertex="1" parent="VNBOhafNNeuqBsvZpEvY-1">
          <mxGeometry x="45" y="60" width="10" height="820" as="geometry" />
        </mxCell>
        <mxCell id="VNBOhafNNeuqBsvZpEvY-10" value="" style="html=1;points=[[0,0,0,0,5],[0,1,0,0,-5],[1,0,0,0,5],[1,1,0,0,-5]];perimeter=orthogonalPerimeter;outlineConnect=0;targetShapes=umlLifeline;portConstraint=eastwest;newEdgeStyle={&quot;curved&quot;:0,&quot;rounded&quot;:0};" vertex="1" parent="VNBOhafNNeuqBsvZpEvY-1">
          <mxGeometry x="50" y="170" width="10" height="20" as="geometry" />
        </mxCell>
        <mxCell id="VNBOhafNNeuqBsvZpEvY-11" value="displayInfoIfPorted()" style="html=1;align=left;spacingLeft=2;endArrow=block;rounded=0;edgeStyle=orthogonalEdgeStyle;curved=0;rounded=0;" edge="1" target="VNBOhafNNeuqBsvZpEvY-10" parent="VNBOhafNNeuqBsvZpEvY-1">
          <mxGeometry x="0.0039" relative="1" as="geometry">
            <mxPoint x="55" y="150" as="sourcePoint" />
            <Array as="points">
              <mxPoint x="85" y="180" />
            </Array>
            <mxPoint as="offset" />
          </mxGeometry>
        </mxCell>
        <mxCell id="VNBOhafNNeuqBsvZpEvY-12" value="" style="html=1;points=[[0,0,0,0,5],[0,1,0,0,-5],[1,0,0,0,5],[1,1,0,0,-5]];perimeter=orthogonalPerimeter;outlineConnect=0;targetShapes=umlLifeline;portConstraint=eastwest;newEdgeStyle={&quot;curved&quot;:0,&quot;rounded&quot;:0};" vertex="1" parent="VNBOhafNNeuqBsvZpEvY-1">
          <mxGeometry x="50" y="100" width="10" height="20" as="geometry" />
        </mxCell>
        <mxCell id="VNBOhafNNeuqBsvZpEvY-13" value="displayWelcomeMessage()" style="html=1;align=left;spacingLeft=2;endArrow=block;rounded=0;edgeStyle=orthogonalEdgeStyle;curved=0;rounded=0;" edge="1" target="VNBOhafNNeuqBsvZpEvY-12" parent="VNBOhafNNeuqBsvZpEvY-1">
          <mxGeometry x="0.0039" relative="1" as="geometry">
            <mxPoint x="55" y="80" as="sourcePoint" />
            <Array as="points">
              <mxPoint x="85" y="110" />
            </Array>
            <mxPoint as="offset" />
          </mxGeometry>
        </mxCell>
        <mxCell id="VNBOhafNNeuqBsvZpEvY-29" value="" style="html=1;points=[[0,0,0,0,5],[0,1,0,0,-5],[1,0,0,0,5],[1,1,0,0,-5]];perimeter=orthogonalPerimeter;outlineConnect=0;targetShapes=umlLifeline;portConstraint=eastwest;newEdgeStyle={&quot;curved&quot;:0,&quot;rounded&quot;:0};" vertex="1" parent="VNBOhafNNeuqBsvZpEvY-1">
          <mxGeometry x="50" y="420" width="10" height="20" as="geometry" />
        </mxCell>
        <mxCell id="VNBOhafNNeuqBsvZpEvY-30" value="getUserInputStartDate(args)" style="html=1;align=left;spacingLeft=2;endArrow=block;rounded=0;edgeStyle=orthogonalEdgeStyle;curved=0;rounded=0;" edge="1" target="VNBOhafNNeuqBsvZpEvY-29" parent="VNBOhafNNeuqBsvZpEvY-1">
          <mxGeometry x="0.0039" relative="1" as="geometry">
            <mxPoint x="55" y="400" as="sourcePoint" />
            <Array as="points">
              <mxPoint x="85" y="430" />
            </Array>
            <mxPoint as="offset" />
          </mxGeometry>
        </mxCell>
        <mxCell id="VNBOhafNNeuqBsvZpEvY-31" value="" style="html=1;points=[[0,0,0,0,5],[0,1,0,0,-5],[1,0,0,0,5],[1,1,0,0,-5]];perimeter=orthogonalPerimeter;outlineConnect=0;targetShapes=umlLifeline;portConstraint=eastwest;newEdgeStyle={&quot;curved&quot;:0,&quot;rounded&quot;:0};" vertex="1" parent="VNBOhafNNeuqBsvZpEvY-1">
          <mxGeometry x="50" y="470" width="10" height="20" as="geometry" />
        </mxCell>
        <mxCell id="VNBOhafNNeuqBsvZpEvY-32" value="getUserInputEndDate(startTime, args)" style="html=1;align=left;spacingLeft=2;endArrow=block;rounded=0;edgeStyle=orthogonalEdgeStyle;curved=0;rounded=0;" edge="1" target="VNBOhafNNeuqBsvZpEvY-31" parent="VNBOhafNNeuqBsvZpEvY-1">
          <mxGeometry x="-0.0588" relative="1" as="geometry">
            <mxPoint x="55" y="450" as="sourcePoint" />
            <Array as="points">
              <mxPoint x="85" y="480" />
            </Array>
            <mxPoint as="offset" />
          </mxGeometry>
        </mxCell>
        <mxCell id="VNBOhafNNeuqBsvZpEvY-33" value="" style="html=1;points=[[0,0,0,0,5],[0,1,0,0,-5],[1,0,0,0,5],[1,1,0,0,-5]];perimeter=orthogonalPerimeter;outlineConnect=0;targetShapes=umlLifeline;portConstraint=eastwest;newEdgeStyle={&quot;curved&quot;:0,&quot;rounded&quot;:0};" vertex="1" parent="VNBOhafNNeuqBsvZpEvY-1">
          <mxGeometry x="50" y="520" width="10" height="20" as="geometry" />
        </mxCell>
        <mxCell id="VNBOhafNNeuqBsvZpEvY-34" value="getUserInputFileName(args)" style="html=1;align=left;spacingLeft=2;endArrow=block;rounded=0;edgeStyle=orthogonalEdgeStyle;curved=0;rounded=0;" edge="1" target="VNBOhafNNeuqBsvZpEvY-33" parent="VNBOhafNNeuqBsvZpEvY-1">
          <mxGeometry relative="1" as="geometry">
            <mxPoint x="55" y="500" as="sourcePoint" />
            <Array as="points">
              <mxPoint x="85" y="530" />
            </Array>
          </mxGeometry>
        </mxCell>
        <mxCell id="VNBOhafNNeuqBsvZpEvY-35" value="" style="html=1;points=[[0,0,0,0,5],[0,1,0,0,-5],[1,0,0,0,5],[1,1,0,0,-5]];perimeter=orthogonalPerimeter;outlineConnect=0;targetShapes=umlLifeline;portConstraint=eastwest;newEdgeStyle={&quot;curved&quot;:0,&quot;rounded&quot;:0};" vertex="1" parent="VNBOhafNNeuqBsvZpEvY-1">
          <mxGeometry x="50" y="570" width="10" height="20" as="geometry" />
        </mxCell>
        <mxCell id="VNBOhafNNeuqBsvZpEvY-36" value="getUserInputCalendar(args)" style="html=1;align=left;spacingLeft=2;endArrow=block;rounded=0;edgeStyle=orthogonalEdgeStyle;curved=0;rounded=0;" edge="1" target="VNBOhafNNeuqBsvZpEvY-35" parent="VNBOhafNNeuqBsvZpEvY-1">
          <mxGeometry relative="1" as="geometry">
            <mxPoint x="55" y="550" as="sourcePoint" />
            <Array as="points">
              <mxPoint x="85" y="580" />
            </Array>
          </mxGeometry>
        </mxCell>
        <mxCell id="VNBOhafNNeuqBsvZpEvY-14" value="Calendar&lt;div&gt;ApiConnector&lt;/div&gt;" style="shape=umlLifeline;perimeter=lifelinePerimeter;whiteSpace=wrap;html=1;container=1;dropTarget=0;collapsible=0;recursiveResize=0;outlineConnect=0;portConstraint=eastwest;newEdgeStyle={&quot;curved&quot;:0,&quot;rounded&quot;:0};" vertex="1" parent="1">
          <mxGeometry x="1140" y="900" width="100" height="570" as="geometry" />
        </mxCell>
        <mxCell id="VNBOhafNNeuqBsvZpEvY-16" value="" style="html=1;points=[[0,0,0,0,5],[0,1,0,0,-5],[1,0,0,0,5],[1,1,0,0,-5]];perimeter=orthogonalPerimeter;outlineConnect=0;targetShapes=umlLifeline;portConstraint=eastwest;newEdgeStyle={&quot;curved&quot;:0,&quot;rounded&quot;:0};" vertex="1" parent="VNBOhafNNeuqBsvZpEvY-14">
          <mxGeometry x="45" y="90" width="10" height="480" as="geometry" />
        </mxCell>
        <mxCell id="VNBOhafNNeuqBsvZpEvY-20" value="" style="html=1;points=[[0,0,0,0,5],[0,1,0,0,-5],[1,0,0,0,5],[1,1,0,0,-5]];perimeter=orthogonalPerimeter;outlineConnect=0;targetShapes=umlLifeline;portConstraint=eastwest;newEdgeStyle={&quot;curved&quot;:0,&quot;rounded&quot;:0};" vertex="1" parent="VNBOhafNNeuqBsvZpEvY-14">
          <mxGeometry x="50" y="100" width="10" height="120" as="geometry" />
        </mxCell>
        <mxCell id="VNBOhafNNeuqBsvZpEvY-21" value="new CalenderAPIConnector()" style="html=1;align=left;spacingLeft=2;endArrow=block;rounded=0;edgeStyle=orthogonalEdgeStyle;curved=0;rounded=0;" edge="1" target="VNBOhafNNeuqBsvZpEvY-20" parent="VNBOhafNNeuqBsvZpEvY-14">
          <mxGeometry relative="1" as="geometry">
            <mxPoint x="55" y="80" as="sourcePoint" />
            <Array as="points">
              <mxPoint x="85" y="110" />
            </Array>
          </mxGeometry>
        </mxCell>
        <mxCell id="VNBOhafNNeuqBsvZpEvY-22" value="" style="html=1;points=[[0,0,0,0,5],[0,1,0,0,-5],[1,0,0,0,5],[1,1,0,0,-5]];perimeter=orthogonalPerimeter;outlineConnect=0;targetShapes=umlLifeline;portConstraint=eastwest;newEdgeStyle={&quot;curved&quot;:0,&quot;rounded&quot;:0};" vertex="1" parent="VNBOhafNNeuqBsvZpEvY-14">
          <mxGeometry x="55" y="140" width="10" height="80" as="geometry" />
        </mxCell>
        <mxCell id="VNBOhafNNeuqBsvZpEvY-23" value="initializeService()" style="html=1;align=left;spacingLeft=2;endArrow=block;rounded=0;edgeStyle=orthogonalEdgeStyle;curved=0;rounded=0;" edge="1" target="VNBOhafNNeuqBsvZpEvY-22" parent="VNBOhafNNeuqBsvZpEvY-14">
          <mxGeometry x="0.0039" relative="1" as="geometry">
            <mxPoint x="60" y="120" as="sourcePoint" />
            <Array as="points">
              <mxPoint x="90" y="150" />
            </Array>
            <mxPoint as="offset" />
          </mxGeometry>
        </mxCell>
        <mxCell id="VNBOhafNNeuqBsvZpEvY-24" value="" style="html=1;points=[[0,0,0,0,5],[0,1,0,0,-5],[1,0,0,0,5],[1,1,0,0,-5]];perimeter=orthogonalPerimeter;outlineConnect=0;targetShapes=umlLifeline;portConstraint=eastwest;newEdgeStyle={&quot;curved&quot;:0,&quot;rounded&quot;:0};" vertex="1" parent="VNBOhafNNeuqBsvZpEvY-14">
          <mxGeometry x="60" y="180" width="10" height="20" as="geometry" />
        </mxCell>
        <mxCell id="VNBOhafNNeuqBsvZpEvY-25" value="getCredentials()" style="html=1;align=left;spacingLeft=2;endArrow=block;rounded=0;edgeStyle=orthogonalEdgeStyle;curved=0;rounded=0;" edge="1" target="VNBOhafNNeuqBsvZpEvY-24" parent="VNBOhafNNeuqBsvZpEvY-14">
          <mxGeometry relative="1" as="geometry">
            <mxPoint x="65" y="160" as="sourcePoint" />
            <Array as="points">
              <mxPoint x="95" y="190" />
            </Array>
          </mxGeometry>
        </mxCell>
        <mxCell id="VNBOhafNNeuqBsvZpEvY-37" value="" style="html=1;points=[[0,0,0,0,5],[0,1,0,0,-5],[1,0,0,0,5],[1,1,0,0,-5]];perimeter=orthogonalPerimeter;outlineConnect=0;targetShapes=umlLifeline;portConstraint=eastwest;newEdgeStyle={&quot;curved&quot;:0,&quot;rounded&quot;:0};" vertex="1" parent="VNBOhafNNeuqBsvZpEvY-14">
          <mxGeometry x="50" y="470" width="10" height="80" as="geometry" />
        </mxCell>
        <mxCell id="VNBOhafNNeuqBsvZpEvY-17" value="getInstance()" style="html=1;verticalAlign=bottom;endArrow=block;curved=0;rounded=0;" edge="1" target="VNBOhafNNeuqBsvZpEvY-14" parent="1">
          <mxGeometry relative="1" as="geometry">
            <mxPoint x="789.8333333333333" y="979.9999999999998" as="sourcePoint" />
            <mxPoint x="1085" y="979.9999999999998" as="targetPoint" />
          </mxGeometry>
        </mxCell>
        <mxCell id="VNBOhafNNeuqBsvZpEvY-18" value="instance" style="html=1;verticalAlign=bottom;endArrow=open;dashed=1;endSize=8;curved=0;rounded=0;" edge="1" source="VNBOhafNNeuqBsvZpEvY-16" parent="1">
          <mxGeometry x="0.0095" relative="1" as="geometry">
            <mxPoint x="789.8333333333333" y="1129.9999999999998" as="targetPoint" />
            <mxPoint x="1085" y="1129.9999999999998" as="sourcePoint" />
            <mxPoint as="offset" />
          </mxGeometry>
        </mxCell>
        <mxCell id="VNBOhafNNeuqBsvZpEvY-38" value="getCalendarEventsByCalendarId(selectedCalendar, startTime, endTime)" style="html=1;verticalAlign=bottom;endArrow=block;curved=0;rounded=0;entryX=0;entryY=0;entryDx=0;entryDy=5;" edge="1" parent="1">
          <mxGeometry relative="1" as="geometry">
            <mxPoint x="789.8333333333333" y="1390" as="sourcePoint" />
            <mxPoint x="1190" y="1390" as="targetPoint" />
          </mxGeometry>
        </mxCell>
        <mxCell id="VNBOhafNNeuqBsvZpEvY-39" value="events" style="html=1;verticalAlign=bottom;endArrow=open;dashed=1;endSize=8;curved=0;rounded=0;exitX=0;exitY=1;exitDx=0;exitDy=-5;" edge="1" source="VNBOhafNNeuqBsvZpEvY-37" parent="1" target="VNBOhafNNeuqBsvZpEvY-1">
          <mxGeometry relative="1" as="geometry">
            <mxPoint x="1020" y="1445" as="targetPoint" />
          </mxGeometry>
        </mxCell>
        <mxCell id="VNBOhafNNeuqBsvZpEvY-42" value="iCal:ical" style="shape=umlLifeline;perimeter=lifelinePerimeter;whiteSpace=wrap;html=1;container=1;dropTarget=0;collapsible=0;recursiveResize=0;outlineConnect=0;portConstraint=eastwest;newEdgeStyle={&quot;curved&quot;:0,&quot;rounded&quot;:0};" vertex="1" parent="1">
          <mxGeometry x="1290" y="1470" width="100" height="300" as="geometry" />
        </mxCell>
        <mxCell id="VNBOhafNNeuqBsvZpEvY-46" value="" style="html=1;points=[[0,0,0,0,5],[0,1,0,0,-5],[1,0,0,0,5],[1,1,0,0,-5]];perimeter=orthogonalPerimeter;outlineConnect=0;targetShapes=umlLifeline;portConstraint=eastwest;newEdgeStyle={&quot;curved&quot;:0,&quot;rounded&quot;:0};" vertex="1" parent="VNBOhafNNeuqBsvZpEvY-42">
          <mxGeometry x="50" y="70" width="10" height="90" as="geometry" />
        </mxCell>
        <mxCell id="VNBOhafNNeuqBsvZpEvY-47" value="iCal(event:events)" style="html=1;verticalAlign=bottom;endArrow=block;curved=0;rounded=0;entryX=0;entryY=0;entryDx=0;entryDy=5;" edge="1" target="VNBOhafNNeuqBsvZpEvY-46" parent="1" source="VNBOhafNNeuqBsvZpEvY-1">
          <mxGeometry relative="1" as="geometry">
            <mxPoint x="1270" y="1525" as="sourcePoint" />
          </mxGeometry>
        </mxCell>
        <mxCell id="VNBOhafNNeuqBsvZpEvY-48" value="return" style="html=1;verticalAlign=bottom;endArrow=open;dashed=1;endSize=8;curved=0;rounded=0;exitX=0;exitY=1;exitDx=0;exitDy=-5;" edge="1" source="VNBOhafNNeuqBsvZpEvY-46" parent="1" target="VNBOhafNNeuqBsvZpEvY-1">
          <mxGeometry relative="1" as="geometry">
            <mxPoint x="1270" y="1595" as="targetPoint" />
          </mxGeometry>
        </mxCell>
        <mxCell id="VNBOhafNNeuqBsvZpEvY-49" value="MyEvent:event" style="shape=umlLifeline;perimeter=lifelinePerimeter;whiteSpace=wrap;html=1;container=1;dropTarget=0;collapsible=0;recursiveResize=0;outlineConnect=0;portConstraint=eastwest;newEdgeStyle={&quot;curved&quot;:0,&quot;rounded&quot;:0};" vertex="1" parent="1">
          <mxGeometry x="1730" y="1520" width="100" height="300" as="geometry" />
        </mxCell>
        <mxCell id="VNBOhafNNeuqBsvZpEvY-53" value="EventFactory" style="shape=umlLifeline;perimeter=lifelinePerimeter;whiteSpace=wrap;html=1;container=1;dropTarget=0;collapsible=0;recursiveResize=0;outlineConnect=0;portConstraint=eastwest;newEdgeStyle={&quot;curved&quot;:0,&quot;rounded&quot;:0};" vertex="1" parent="1">
          <mxGeometry x="1460" y="1470" width="100" height="300" as="geometry" />
        </mxCell>
        <mxCell id="VNBOhafNNeuqBsvZpEvY-56" value="EventConverter" style="shape=umlLifeline;perimeter=lifelinePerimeter;whiteSpace=wrap;html=1;container=1;dropTarget=0;collapsible=0;recursiveResize=0;outlineConnect=0;portConstraint=eastwest;newEdgeStyle={&quot;curved&quot;:0,&quot;rounded&quot;:0};" vertex="1" parent="1">
          <mxGeometry x="1600" y="1470" width="100" height="300" as="geometry" />
        </mxCell>
        <mxCell id="VNBOhafNNeuqBsvZpEvY-57" value="loop" style="shape=umlFrame;whiteSpace=wrap;html=1;pointerEvents=0;" vertex="1" parent="1">
          <mxGeometry x="710" y="1520" width="1210" height="120" as="geometry" />
        </mxCell>
        <mxCell id="VNBOhafNNeuqBsvZpEvY-60" value="[events]" style="text;html=1;align=center;verticalAlign=middle;resizable=0;points=[];autosize=1;strokeColor=none;fillColor=none;" vertex="1" parent="1">
          <mxGeometry x="710" y="1550" width="70" height="30" as="geometry" />
        </mxCell>
      </root>
    </mxGraphModel>
  </diagram>
</mxfile>
